<svg width="256" height="256" viewBox="0 0 256 256" fill="none" xmlns="http://www.w3.org/2000/svg">
<path d="M192 120C201.316 119.993 210.505 122.159 218.838 126.325C227.17 130.491 234.416 136.543 240 144" stroke="#303030" stroke-width="16" stroke-linecap="round" stroke-linejoin="round"/>
<path d="M16 144C21.584 136.543 28.83 130.491 37.1624 126.325C45.4949 122.159 54.6841 119.993 64 120" stroke="#303030" stroke-width="16" stroke-linecap="round" stroke-linejoin="round"/>
<path d="M128 184C150.091 184 168 166.091 168 144C168 121.909 150.091 104 128 104C105.909 104 88 121.909 88 144C88 166.091 105.909 184 128 184Z" stroke="#303030" stroke-width="16" stroke-linecap="round" stroke-linejoin="round"/>
<path d="M72 216C77.7429 206.254 85.9296 198.176 95.751 192.564C105.572 186.952 116.688 184 128 184C139.312 184 150.428 186.952 160.249 192.564C170.07 198.176 178.257 206.254 184 216" stroke="#303030" stroke-width="16" stroke-linecap="round" stroke-linejoin="round"/>
<path d="M161 80C162.496 74.2056 165.587 68.9469 169.922 64.821C174.257 60.6952 179.661 57.8675 185.523 56.6591C191.384 55.4508 197.466 55.9102 203.079 57.9852C208.692 60.0602 213.611 63.6676 217.277 68.3977C220.943 73.1279 223.209 78.7912 223.818 84.7445C224.427 90.6979 223.354 96.7027 220.721 102.077C218.089 107.451 214.002 111.98 208.925 115.148C203.848 118.316 197.984 119.997 192 120" stroke="#303030" stroke-width="16" stroke-linecap="round" stroke-linejoin="round"/>
<path d="M64 120C58.0156 119.997 52.152 118.316 47.075 115.148C41.9981 111.98 37.9112 107.451 35.2787 102.077C32.6461 96.7027 31.5733 90.6979 32.1822 84.7445C32.791 78.7912 35.057 73.1279 38.7228 68.3977C42.3887 63.6676 47.3075 60.0602 52.9207 57.9852C58.5338 55.9102 64.6163 55.4508 70.4775 56.6591C76.3386 57.8675 81.7435 60.6952 86.0782 64.821C90.413 68.9469 93.5039 74.2056 95 80" stroke="#303030" stroke-width="16" stroke-linecap="round" stroke-linejoin="round"/>
</svg>
