<svg width="256" height="256" viewBox="0 0 256 256" fill="none" xmlns="http://www.w3.org/2000/svg">
<path d="M128 224C181.019 224 224 181.019 224 128C224 74.9807 181.019 32 128 32C74.9807 32 32 74.9807 32 128C32 181.019 74.9807 224 128 224Z" stroke="#C10F0F" stroke-width="16" stroke-linecap="round" stroke-linejoin="round"/>
<path d="M120 120C122.122 120 124.157 120.843 125.657 122.343C127.157 123.843 128 125.878 128 128V168C128 170.122 128.843 172.157 130.343 173.657C131.843 175.157 133.878 176 136 176" fill="#C10F0F"/>
<path d="M120 120C122.122 120 124.157 120.843 125.657 122.343C127.157 123.843 128 125.878 128 128V168C128 170.122 128.843 172.157 130.343 173.657C131.843 175.157 133.878 176 136 176" stroke="#C10F0F" stroke-width="16" stroke-linecap="round" stroke-linejoin="round"/>
<path d="M124 96C130.627 96 136 90.6274 136 84C136 77.3726 130.627 72 124 72C117.373 72 112 77.3726 112 84C112 90.6274 117.373 96 124 96Z" fill="#C10F0F"/>
</svg>
