<svg width="256" height="256" viewBox="0 0 256 256" fill="none" xmlns="http://www.w3.org/2000/svg">
<path d="M216 56H40" stroke="white" stroke-width="16" stroke-linecap="round" stroke-linejoin="round"/>
<path d="M104 104V168" stroke="white" stroke-width="16" stroke-linecap="round" stroke-linejoin="round"/>
<path d="M152 104V168" stroke="white" stroke-width="16" stroke-linecap="round" stroke-linejoin="round"/>
<path d="M200 56V208C200 210.122 199.157 212.157 197.657 213.657C196.157 215.157 194.122 216 192 216H64C61.8783 216 59.8434 215.157 58.3431 213.657C56.8429 212.157 56 210.122 56 208V56" stroke="white" stroke-width="16" stroke-linecap="round" stroke-linejoin="round"/>
<path d="M168 56V40C168 35.7565 166.314 31.6869 163.314 28.6863C160.313 25.6857 156.243 24 152 24H104C99.7565 24 95.6869 25.6857 92.6863 28.6863C89.6857 31.6869 88 35.7565 88 40V56" stroke="white" stroke-width="16" stroke-linecap="round" stroke-linejoin="round"/>
</svg>
